<svg width="22" height="22" viewBox="0 0 22 22" fill="none" xmlns="http://www.w3.org/2000/svg">
<path d="M16 1H6C3.23858 1 1 3.23858 1 6V16C1 18.7614 3.23858 21 6 21H16C18.7614 21 21 18.7614 21 16V6C21 3.23858 18.7614 1 16 1Z" fill="white" fill-opacity="0.6"/>
<path d="M15 10.3701C15.1234 11.2023 14.9813 12.0523 14.5938 12.7991C14.2063 13.5459 13.5931 14.1515 12.8416 14.5297C12.0901 14.908 11.2384 15.0397 10.4078 14.906C9.57713 14.7723 8.80976 14.3801 8.21484 13.7852C7.61992 13.1903 7.22773 12.4229 7.09407 11.5923C6.9604 10.7616 7.09207 9.90995 7.47033 9.15843C7.84859 8.40691 8.45419 7.7938 9.20099 7.4063C9.94778 7.0188 10.7978 6.87665 11.63 7.00006C12.4789 7.12594 13.2649 7.52152 13.8717 8.12836C14.4785 8.73521 14.8741 9.52113 15 10.3701Z" fill="white" fill-opacity="0.6"/>
<path d="M16.5 5.5H16.51M6 1H16C18.7614 1 21 3.23858 21 6V16C21 18.7614 18.7614 21 16 21H6C3.23858 21 1 18.7614 1 16V6C1 3.23858 3.23858 1 6 1ZM15 10.3701C15.1234 11.2023 14.9813 12.0523 14.5938 12.7991C14.2063 13.5459 13.5931 14.1515 12.8416 14.5297C12.0901 14.908 11.2384 15.0397 10.4078 14.906C9.57713 14.7723 8.80976 14.3801 8.21484 13.7852C7.61992 13.1903 7.22773 12.4229 7.09407 11.5923C6.9604 10.7616 7.09207 9.90995 7.47033 9.15843C7.84859 8.40691 8.45419 7.7938 9.20099 7.4063C9.94778 7.0188 10.7978 6.87665 11.63 7.00006C12.4789 7.12594 13.2649 7.52152 13.8717 8.12836C14.4785 8.73521 14.8741 9.52113 15 10.3701Z" stroke="#6E98A6" stroke-linecap="round" stroke-linejoin="round"/>
</svg>
